{
	"asset":{
		"generator":"Khronos glTF Blender I/O v4.4.56",
		"version":"2.0"
	},
	"scene":0,
	"scenes":[
		{
			"name":"Scene",
			"nodes":[
				3,
				4
			]
		}
	],
	"nodes":[
		{
			"extras":{
				"nowater":1.0,
				"datastreamemitter":1.0
			},
			"mesh":0,
			"name":"flag",
			"translation":[
				-0.010812466964125633,
				18.876646041870117,
				0.6063777208328247
			]
		},
		{
			"extras":{
				"nowater":1.0
			},
			"mesh":1,
			"name":"sail",
			"rotation":[
				0.70710688829422,
				0,
				0,
				0.7071066498756409
			],
			"scale":[
				12.769205093383789,
				12.769203186035156,
				12.769203186035156
			],
			"translation":[
				0.0809439942240715,
				14.807143211364746,
				0.7108383774757385
			]
		},
		{
			"extras":{
				"nowater":1.0
			},
			"mesh":2,
			"name":"sail2",
			"rotation":[
				0.70710688829422,
				0,
				0,
				0.7071066498756409
			],
			"scale":[
				12.769205093383789,
				12.769203186035156,
				12.769203186035156
			],
			"translation":[
				0.32698649168014526,
				13.214259147644043,
				-7.932239055633545
			]
		},
		{
			"children":[
				0,
				1,
				2
			],
			"mesh":3,
			"name":"boat"
		},
		{
			"extras":{
				"nowater":1.0
			},
			"mesh":4,
			"name":"boat.001"
		}
	],
	"animations":[
		{
			"channels":[
				{
					"sampler":0,
					"target":{
						"node":0,
						"path":"rotation"
					}
				}
			],
			"name":"rotateFlag",
			"samplers":[
				{
					"input":24,
					"interpolation":"LINEAR",
					"output":25
				}
			]
		},
		{
			"channels":[
				{
					"sampler":0,
					"target":{
						"node":0,
						"path":"scale"
					}
				}
			],
			"name":"foldFlag",
			"samplers":[
				{
					"input":26,
					"interpolation":"LINEAR",
					"output":27
				}
			]
		},
		{
			"channels":[
				{
					"sampler":0,
					"target":{
						"node":1,
						"path":"translation"
					}
				},
				{
					"sampler":1,
					"target":{
						"node":1,
						"path":"scale"
					}
				},
				{
					"sampler":2,
					"target":{
						"node":2,
						"path":"translation"
					}
				},
				{
					"sampler":3,
					"target":{
						"node":2,
						"path":"scale"
					}
				}
			],
			"name":"strongWind",
			"samplers":[
				{
					"input":28,
					"interpolation":"LINEAR",
					"output":29
				},
				{
					"input":28,
					"interpolation":"LINEAR",
					"output":30
				},
				{
					"input":28,
					"interpolation":"LINEAR",
					"output":31
				},
				{
					"input":28,
					"interpolation":"LINEAR",
					"output":32
				}
			]
		},
		{
			"channels":[
				{
					"sampler":0,
					"target":{
						"node":1,
						"path":"scale"
					}
				},
				{
					"sampler":1,
					"target":{
						"node":2,
						"path":"scale"
					}
				}
			],
			"name":"sailScale",
			"samplers":[
				{
					"input":28,
					"interpolation":"LINEAR",
					"output":33
				},
				{
					"input":28,
					"interpolation":"LINEAR",
					"output":34
				}
			]
		}
	],
	"materials":[
		{
			"doubleSided":true,
			"name":"flag",
			"normalTexture":{
				"index":0
			},
			"pbrMetallicRoughness":{
				"baseColorTexture":{
					"index":1
				},
				"metallicRoughnessTexture":{
					"index":2
				}
			}
		},
		{
			"doubleSided":true,
			"name":"sail",
			"normalTexture":{
				"index":3
			},
			"pbrMetallicRoughness":{
				"baseColorTexture":{
					"index":4
				},
				"metallicRoughnessTexture":{
					"index":5
				}
			}
		},
		{
			"doubleSided":true,
			"name":"boat",
			"normalTexture":{
				"index":6
			},
			"pbrMetallicRoughness":{
				"baseColorTexture":{
					"index":7
				},
				"metallicRoughnessTexture":{
					"index":8
				}
			}
		}
	],
	"meshes":[
		{
			"name":"model.005",
			"primitives":[
				{
					"attributes":{
						"POSITION":0,
						"NORMAL":1,
						"TEXCOORD_0":2
					},
					"indices":3,
					"material":0
				}
			]
		},
		{
			"name":"model.002",
			"primitives":[
				{
					"attributes":{
						"POSITION":4,
						"NORMAL":5,
						"TEXCOORD_0":6
					},
					"indices":7,
					"material":1
				},
				{
					"attributes":{
						"POSITION":8,
						"NORMAL":9,
						"TEXCOORD_0":10
					},
					"indices":11,
					"material":2
				}
			]
		},
		{
			"name":"model.004",
			"primitives":[
				{
					"attributes":{
						"POSITION":12,
						"NORMAL":13,
						"TEXCOORD_0":14
					},
					"indices":15,
					"material":2
				}
			]
		},
		{
			"name":"model",
			"primitives":[
				{
					"attributes":{
						"POSITION":16,
						"NORMAL":17,
						"TEXCOORD_0":18
					},
					"indices":19,
					"material":2
				}
			]
		},
		{
			"name":"model.001",
			"primitives":[
				{
					"attributes":{
						"POSITION":20,
						"NORMAL":21,
						"TEXCOORD_0":22
					},
					"indices":23,
					"material":2
				}
			]
		}
	],
	"textures":[
		{
			"sampler":0,
			"source":0
		},
		{
			"sampler":0,
			"source":1
		},
		{
			"sampler":0,
			"source":2
		},
		{
			"sampler":0,
			"source":0
		},
		{
			"sampler":0,
			"source":1
		},
		{
			"sampler":0,
			"source":2
		},
		{
			"sampler":0,
			"source":0
		},
		{
			"sampler":0,
			"source":1
		},
		{
			"sampler":0,
			"source":2
		}
	],
	"images":[
		{
			"mimeType":"image/png",
			"name":"texture_normal",
			"uri":"texture_normal.png"
		},
		{
			"mimeType":"image/png",
			"name":"texture_diffuse",
			"uri":"texture_diffuse.png"
		},
		{
			"mimeType":"image/png",
			"name":"texture_metallic-texture_roughness",
			"uri":"texture_metallic-texture_roughness.png"
		}
	],
	"accessors":[
		{
			"bufferView":0,
			"componentType":5126,
			"count":485,
			"max":[
				0.14599886536598206,
				3.1221134662628174,
				0.025818603113293648
			],
			"min":[
				-0.04968224838376045,
				1.280271053314209,
				-4.837421417236328
			],
			"type":"VEC3"
		},
		{
			"bufferView":1,
			"componentType":5126,
			"count":485,
			"type":"VEC3"
		},
		{
			"bufferView":2,
			"componentType":5126,
			"count":485,
			"type":"VEC2"
		},
		{
			"bufferView":3,
			"componentType":5123,
			"count":1839,
			"type":"SCALAR"
		},
		{
			"bufferView":4,
			"componentType":5126,
			"count":1422,
			"max":[
				0.4760119915008545,
				0.1732734739780426,
				0.6853569746017456
			],
			"min":[
				-0.48771700263023376,
				-0.07107999920845032,
				-0.007086038589477539
			],
			"type":"VEC3"
		},
		{
			"bufferView":5,
			"componentType":5126,
			"count":1422,
			"type":"VEC3"
		},
		{
			"bufferView":6,
			"componentType":5126,
			"count":1422,
			"type":"VEC2"
		},
		{
			"bufferView":7,
			"componentType":5123,
			"count":7170,
			"type":"SCALAR"
		},
		{
			"bufferView":8,
			"componentType":5126,
			"count":1453,
			"max":[
				0.4761839807033539,
				0.08726698905229568,
				0.6853569746017456
			],
			"min":[
				-0.48833000659942627,
				-0.07240799814462662,
				-0.0044519901275634766
			],
			"type":"VEC3"
		},
		{
			"bufferView":9,
			"componentType":5126,
			"count":1453,
			"type":"VEC3"
		},
		{
			"bufferView":10,
			"componentType":5126,
			"count":1453,
			"type":"VEC2"
		},
		{
			"bufferView":11,
			"componentType":5123,
			"count":7020,
			"type":"SCALAR"
		},
		{
			"bufferView":12,
			"componentType":5126,
			"count":1867,
			"max":[
				0.3170715570449829,
				0.10104984045028687,
				0.4361061453819275
			],
			"min":[
				-0.3657395541667938,
				-0.042783141136169434,
				-0.0035309791564941406
			],
			"type":"VEC3"
		},
		{
			"bufferView":13,
			"componentType":5126,
			"count":1867,
			"type":"VEC3"
		},
		{
			"bufferView":14,
			"componentType":5126,
			"count":1867,
			"type":"VEC2"
		},
		{
			"bufferView":15,
			"componentType":5123,
			"count":8283,
			"type":"SCALAR"
		},
		{
			"bufferView":16,
			"componentType":5126,
			"count":5576,
			"max":[
				3.8623695373535156,
				2.3775951862335205,
				9.405972480773926
			],
			"min":[
				-3.9724488258361816,
				-2.0286471843719482,
				-11.700716018676758
			],
			"type":"VEC3"
		},
		{
			"bufferView":17,
			"componentType":5126,
			"count":5576,
			"type":"VEC3"
		},
		{
			"bufferView":18,
			"componentType":5126,
			"count":5576,
			"type":"VEC2"
		},
		{
			"bufferView":19,
			"componentType":5123,
			"count":17874,
			"type":"SCALAR"
		},
		{
			"bufferView":20,
			"componentType":5126,
			"count":27405,
			"max":[
				6.852619647979736,
				22.21444320678711,
				11.846222877502441
			],
			"min":[
				-6.84938907623291,
				1.5539191961288452,
				-11.805512428283691
			],
			"type":"VEC3"
		},
		{
			"bufferView":21,
			"componentType":5126,
			"count":27405,
			"type":"VEC3"
		},
		{
			"bufferView":22,
			"componentType":5126,
			"count":27405,
			"type":"VEC2"
		},
		{
			"bufferView":23,
			"componentType":5123,
			"count":80715,
			"type":"SCALAR"
		},
		{
			"bufferView":24,
			"componentType":5126,
			"count":9,
			"max":[
				0.375
			],
			"min":[
				0.041666666666666664
			],
			"type":"SCALAR"
		},
		{
			"bufferView":25,
			"componentType":5126,
			"count":9,
			"type":"VEC4"
		},
		{
			"bufferView":26,
			"componentType":5126,
			"count":16,
			"max":[
				0.6666666666666666
			],
			"min":[
				0.041666666666666664
			],
			"type":"SCALAR"
		},
		{
			"bufferView":27,
			"componentType":5126,
			"count":16,
			"type":"VEC3"
		},
		{
			"bufferView":28,
			"componentType":5126,
			"count":10,
			"max":[
				0.4166666666666667
			],
			"min":[
				0.041666666666666664
			],
			"type":"SCALAR"
		},
		{
			"bufferView":29,
			"componentType":5126,
			"count":10,
			"type":"VEC3"
		},
		{
			"bufferView":30,
			"componentType":5126,
			"count":10,
			"type":"VEC3"
		},
		{
			"bufferView":31,
			"componentType":5126,
			"count":10,
			"type":"VEC3"
		},
		{
			"bufferView":32,
			"componentType":5126,
			"count":10,
			"type":"VEC3"
		},
		{
			"bufferView":33,
			"componentType":5126,
			"count":10,
			"type":"VEC3"
		},
		{
			"bufferView":34,
			"componentType":5126,
			"count":10,
			"type":"VEC3"
		}
	],
	"bufferViews":[
		{
			"buffer":0,
			"byteLength":5820,
			"byteOffset":0,
			"target":34962
		},
		{
			"buffer":0,
			"byteLength":5820,
			"byteOffset":5820,
			"target":34962
		},
		{
			"buffer":0,
			"byteLength":3880,
			"byteOffset":11640,
			"target":34962
		},
		{
			"buffer":0,
			"byteLength":3678,
			"byteOffset":15520,
			"target":34963
		},
		{
			"buffer":0,
			"byteLength":17064,
			"byteOffset":19200,
			"target":34962
		},
		{
			"buffer":0,
			"byteLength":17064,
			"byteOffset":36264,
			"target":34962
		},
		{
			"buffer":0,
			"byteLength":11376,
			"byteOffset":53328,
			"target":34962
		},
		{
			"buffer":0,
			"byteLength":14340,
			"byteOffset":64704,
			"target":34963
		},
		{
			"buffer":0,
			"byteLength":17436,
			"byteOffset":79044,
			"target":34962
		},
		{
			"buffer":0,
			"byteLength":17436,
			"byteOffset":96480,
			"target":34962
		},
		{
			"buffer":0,
			"byteLength":11624,
			"byteOffset":113916,
			"target":34962
		},
		{
			"buffer":0,
			"byteLength":14040,
			"byteOffset":125540,
			"target":34963
		},
		{
			"buffer":0,
			"byteLength":22404,
			"byteOffset":139580,
			"target":34962
		},
		{
			"buffer":0,
			"byteLength":22404,
			"byteOffset":161984,
			"target":34962
		},
		{
			"buffer":0,
			"byteLength":14936,
			"byteOffset":184388,
			"target":34962
		},
		{
			"buffer":0,
			"byteLength":16566,
			"byteOffset":199324,
			"target":34963
		},
		{
			"buffer":0,
			"byteLength":66912,
			"byteOffset":215892,
			"target":34962
		},
		{
			"buffer":0,
			"byteLength":66912,
			"byteOffset":282804,
			"target":34962
		},
		{
			"buffer":0,
			"byteLength":44608,
			"byteOffset":349716,
			"target":34962
		},
		{
			"buffer":0,
			"byteLength":35748,
			"byteOffset":394324,
			"target":34963
		},
		{
			"buffer":0,
			"byteLength":328860,
			"byteOffset":430072,
			"target":34962
		},
		{
			"buffer":0,
			"byteLength":328860,
			"byteOffset":758932,
			"target":34962
		},
		{
			"buffer":0,
			"byteLength":219240,
			"byteOffset":1087792,
			"target":34962
		},
		{
			"buffer":0,
			"byteLength":161430,
			"byteOffset":1307032,
			"target":34963
		},
		{
			"buffer":0,
			"byteLength":36,
			"byteOffset":1468464
		},
		{
			"buffer":0,
			"byteLength":144,
			"byteOffset":1468500
		},
		{
			"buffer":0,
			"byteLength":64,
			"byteOffset":1468644
		},
		{
			"buffer":0,
			"byteLength":192,
			"byteOffset":1468708
		},
		{
			"buffer":0,
			"byteLength":40,
			"byteOffset":1468900
		},
		{
			"buffer":0,
			"byteLength":120,
			"byteOffset":1468940
		},
		{
			"buffer":0,
			"byteLength":120,
			"byteOffset":1469060
		},
		{
			"buffer":0,
			"byteLength":120,
			"byteOffset":1469180
		},
		{
			"buffer":0,
			"byteLength":120,
			"byteOffset":1469300
		},
		{
			"buffer":0,
			"byteLength":120,
			"byteOffset":1469420
		},
		{
			"buffer":0,
			"byteLength":120,
			"byteOffset":1469540
		}
	],
	"samplers":[
		{
			"magFilter":9729,
			"minFilter":9987
		}
	],
	"buffers":[
		{
			"byteLength":1469660,
			"uri":"boat.bin"
		}
	]
}
